<svg width="74" height="35" viewBox="0 0 74 35" fill="none" xmlns="http://www.w3.org/2000/svg">
<path d="M12.3391 28.6924C15.6263 30.8903 19.1524 32.2406 22.9952 32.4529V31.8047C19.3058 31.3622 15.7656 30.2688 12.3391 28.6924Z" fill="#FDB927"/>
<path d="M25.3329 5.30713L23.1392 24.1806L29.27 23.8435L30.0574 14.1821L33.0384 23.619L36.1416 23.3641L38.6067 15.0247L39.6192 23.1133L44.5125 22.7464L42.0377 6.99229L36.8069 6.7114L34.5008 15.4179L31.9698 6.14961L25.3329 5.30713Z" fill="#808080"/>
<path d="M44.7375 7.18945L44.8616 22.7633L52.8203 22.1318L52.8086 18.9011H49.3496L49.3214 17.2441L52.4431 17.2159V13.5929L49.3496 13.5649L49.2934 12.0202L52.7806 12.1325L52.7242 8.06011L44.7375 7.18945Z" fill="#808080"/>
<path d="M60.6947 13.4714L63.4789 11.7862C62.8296 10.7491 62.412 9.65649 60.6665 8.80928C59.6292 8.24729 57.7941 8.05642 56.5325 8.83725C54.7023 9.81171 53.5457 11.9328 53.5514 13.8927C53.4268 15.86 53.5033 17.8505 54.5076 19.5098C56.1765 22.2786 58.5678 22.3621 60.8775 21.532C61.9621 21.0723 63.5233 19.5579 63.5631 17.4035L63.732 14.3702L58.9511 14.2577L58.9229 17.1506L60.4134 17.1788C60.3286 17.8666 60.0986 18.3415 58.7822 18.4144C58.2741 18.3622 57.0171 18.1769 57.0668 16.5329L57.1793 13.7663C57.2077 13.1582 58.0497 12.2046 59.1197 12.2357C59.7505 12.2537 60.3229 12.5493 60.6947 13.4714V13.4714Z" fill="#808080"/>
<path d="M66.4525 9.15723L63.5525 21.3079L66.3918 21.122L66.7034 19.609H68.6945L68.9145 20.924L71.4888 20.7294L69.4823 9.32998L66.4525 9.15723ZM67.9068 13.1772L68.504 16.9377L67.1795 16.9117L67.9068 13.1772Z" fill="#808080"/>
<path d="M26.287 4.67236L24.0935 23.5458L30.2241 23.2088L31.0117 13.5473L33.9926 22.984L37.0958 22.7293L39.5609 14.39L40.5733 22.4786L45.4667 22.1114L42.9919 6.35733L37.7611 6.07663L35.4549 14.7831L32.924 5.51485L26.287 4.67236Z" fill="white"/>
<path d="M45.6919 6.55469L45.816 22.1285L53.7748 21.497L53.7631 18.2663H50.304L50.2759 16.6093L53.3975 16.5812V12.9581L50.304 12.9299L50.2477 11.3852L53.7349 11.4977L53.6787 7.42534L45.6919 6.55469Z" fill="white"/>
<path d="M61.6491 12.8367L64.4333 11.1515C63.784 10.1144 63.3665 9.02159 61.6211 8.17458C60.5836 7.6124 58.7485 7.42172 57.4869 8.20255C55.6567 9.17701 54.5001 11.2981 54.506 13.258C54.3814 15.2253 54.4577 17.2158 55.4623 18.8751C57.1311 21.6439 59.5223 21.7274 61.8319 20.8973C62.9168 20.4376 64.4777 18.9232 64.5178 16.7686L64.6864 13.7355L59.9055 13.623L59.8775 16.5159L61.368 16.5441C61.283 17.2317 61.053 17.7068 59.7369 17.7797C59.2288 17.7275 57.9716 17.5422 58.0213 15.898L58.1339 13.1316C58.1621 12.5235 59.0041 11.5699 60.0743 11.6008C60.7049 11.619 61.2775 11.9146 61.6491 12.8367V12.8367Z" fill="white"/>
<path d="M67.4069 8.52197L64.5068 20.6729L67.3463 20.4869L67.6579 18.9739H69.6489L69.8688 20.289L72.4434 20.0942L70.4367 8.69492L67.4069 8.52197ZM68.8611 12.5419L69.4586 16.3027L68.1341 16.2767L68.8611 12.5419Z" fill="white"/>
<path d="M26.7645 4.35449L24.5708 23.2281L30.7016 22.8911L31.489 13.2296L34.4701 22.6663L37.5733 22.4116L40.0384 14.0723L41.0508 22.1609L45.9442 21.7937L43.4694 6.03966L38.2386 5.75896L35.9324 14.4655L33.4014 5.19717L26.7645 4.35449Z" fill="#EE1D25"/>
<path d="M46.1692 6.23535L46.2933 21.8094L54.2519 21.1779L54.2403 17.9472H50.7813L50.753 16.29L53.8748 16.262V12.639L50.7813 12.6108L50.725 11.0661L54.2122 11.1786L54.1558 7.106L46.1692 6.23535Z" fill="#EE1D25"/>
<path d="M62.1263 12.5193L64.9105 10.8342C64.2612 9.79708 63.8437 8.70423 62.0981 7.85702C61.0608 7.29504 59.2257 7.10436 57.9642 7.88519C56.134 8.85965 54.9773 10.9807 54.9831 12.9407C54.8584 14.9079 54.9349 16.8982 55.9393 18.5578C57.6081 21.3265 59.9995 21.41 62.3091 20.58C63.3938 20.1202 64.9549 18.6058 64.9948 16.4513L65.1636 13.418L60.3827 13.3057L60.3545 16.1985L61.845 16.2267C61.7602 16.9144 61.5302 17.3895 60.2141 17.4624C59.7058 17.4102 58.4488 17.2248 58.4985 15.5806L58.6109 12.8142C58.6393 12.2061 59.4813 11.2526 60.5515 11.2835C61.1821 11.3016 61.7545 11.5973 62.1263 12.5193V12.5193Z" fill="#EE1D25"/>
<path d="M67.8842 8.20361L64.9841 20.3545L67.8234 20.1686L68.135 18.6556H70.1262L70.3461 19.9706L72.9205 19.7758L70.914 8.37656L67.8842 8.20361ZM69.3384 12.2236L69.9357 15.9843L68.6112 15.9583L69.3384 12.2236Z" fill="#EE1D25"/>
<path d="M28.0762 12.3506C28.0762 16.8644 24.4625 20.5235 20.0049 20.5235C15.5475 20.5235 11.9338 16.8644 11.9338 12.3506C11.9338 7.83683 15.5475 4.17773 20.0049 4.17773C24.4625 4.17773 28.0762 7.83683 28.0762 12.3506Z" fill="#FDB927"/>
<path d="M28.0762 12.3506C28.0762 16.8644 24.4625 20.5235 20.0049 20.5235C15.5475 20.5235 11.9338 16.8644 11.9338 12.3506C11.9338 7.83683 15.5475 4.17773 20.0049 4.17773C24.4625 4.17773 28.0762 7.83683 28.0762 12.3506Z" fill="url(#paint0_radial_18501_8)"/>
<path d="M28.5534 12.0332C28.5534 16.547 24.9398 20.2061 20.4822 20.2061C16.0245 20.2061 12.4109 16.547 12.4109 12.0332C12.4109 7.51945 16.0245 3.86035 20.4822 3.86035C24.9398 3.86035 28.5534 7.51945 28.5534 12.0332Z" fill="url(#paint1_radial_18501_8)"/>
<path d="M19.0995 12.5255L17.0393 11.4936L14.9249 13.2193L15.7028 10.813L12.6851 9.21077L15.9989 9.31399L16.6845 7.13086L17.5508 9.29311L19.9194 9.2868L18.2346 10.5788L19.0995 12.5255Z" fill="#214489"/>
<path d="M22.8601 8.5634L21.0798 7.89839L19.82 9.32L19.8835 7.22492L17.9614 5.95144L19.9818 5.80193L20.1743 4.27002L21.2232 5.79346L22.8603 5.76017L21.8954 6.92767L22.8601 8.5634Z" fill="#214489"/>
<path d="M26.3317 9.24437L25.1717 9.05822L24.7836 10.3601L24.1666 8.86085L22.8774 8.56833L24.04 7.85605L23.8845 6.34521L24.8264 7.40418L25.7455 6.76813L25.439 8.12985L26.3317 9.24437Z" fill="#214489"/>
<path d="M26.2779 14.2264L25.4773 12.7758L24.2598 12.9356L25.1262 11.8916L24.7122 10.428L25.6495 11.1137L26.4531 10.1611L26.429 11.6078L27.5148 12.2649L26.3288 12.4709L26.2779 14.2264Z" fill="#214489"/>
<path d="M20.3978 17.9946L18.8954 16.856L16.3733 18.7238L17.5155 16.2423L15.2112 14.5455L18.3169 14.6148L19.083 12.5308L19.811 14.5423L21.7676 14.5959L20.0812 15.8048L20.3978 17.9946Z" fill="#214489"/>
<path d="M26.09 15.1929L24.4738 14.9163L24.2481 13.0107L23.3886 14.7656L21.7546 14.5907L22.8397 15.9517L22.0554 17.7491L23.5856 16.8355L24.6685 18.0138L24.5955 16.1955L26.09 15.1929Z" fill="#214489"/>
<path d="M17.6077 21.7971C22.6982 24.3058 27.6817 21.6301 29.1281 16.9922C26.663 20.8471 20.6724 22.2301 17.6077 21.7971V21.7971Z" fill="#FDB927"/>
<path d="M11.7928 8.80371C12.3163 7.1676 13.8938 5.0676 15.6181 4.52985C15.0451 4.17647 12.0246 1.77844 7.18803 2.57679C2.82409 3.57607 3.2874 8.53759 3.92252 10.544C3.96828 9.34383 3.83987 7.70949 4.58367 6.7567C4.95132 6.34265 7.18389 5.39774 11.5603 8.61186C11.9102 8.86635 10.8064 8.01954 11.7928 8.80371Z" fill="#FDB927"/>
<path d="M11.0165 9.90604C9.68472 8.66034 8.18589 7.70262 6.33281 6.97774C4.11267 16.5478 12.6356 23.7746 18.068 27.4136C13.5481 26.5898 1.87044 18.8042 1.99786 7.90748C1.97104 7.16408 2.47696 1.72251 8.42119 1.54346C12.2461 1.62087 13.8599 2.48088 15.4238 3.20616" stroke="#FDB927" stroke-width="2.95"/>
<path d="M10.8206 10.1205L11.4145 10.6645L11.5796 9.99816L11.1796 9.66211L10.9247 9.8516L10.7961 9.98595L10.8206 10.1205Z" fill="#FDB927"/>
<path d="M15.2769 3.45809C15.7106 3.69585 16.1358 3.93537 16.5439 4.17864L17.4437 3.98304C16.7938 3.63183 15.9952 3.12992 15.5141 2.9292L15.3258 3.15179L15.2769 3.45809Z" fill="#FDB927"/>
<path d="M16.3413 27.204C17.3942 27.6431 19.434 28.1345 21.0784 28.0394C19.3622 27.685 18.9374 27.6988 17.633 26.7734L16.8802 26.8637L16.3413 27.204Z" fill="#FDB927"/>
<path d="M5.23871 7.27832C4.39965 10.1125 5.02096 13.4003 6.56081 17.108C4.78112 14.0755 2.2099 11.0879 5.23871 7.27832V7.27832Z" fill="#EE1D25"/>
<path d="M11.4576 5.71338C9.63351 9.01063 9.22069 12.3601 10.9189 15.7877C9.98401 12.4296 10.3053 9.07149 11.4576 5.71338Z" fill="#EE1D25"/>
<path d="M72.082 23.0895L71.6064 24.4193L70.8457 24.0963C70.2228 23.9486 70.1512 24.6843 70.4841 24.7422L71.226 24.9321C71.6818 25.0786 71.8551 25.4267 71.9488 25.654C72.1632 26.4069 71.9808 26.7195 71.8916 27.1355C71.5968 27.9307 71.0396 28.2731 70.351 28.3893C69.4867 28.5175 69.0502 28.3463 68.5251 28.2372L69.1147 26.6417C69.2224 27.0549 69.7086 27.0671 69.8376 27.0975C70.1254 27.171 70.3547 27.0547 70.4652 26.9076C70.6248 26.6314 70.4437 26.4388 70.2751 26.3757L69.4382 26.2048C68.9342 26.0706 68.793 25.4588 68.7058 25.0936C68.65 24.608 68.708 24.1765 68.9579 23.76C69.1545 23.3885 69.3851 23.1401 69.7323 22.8768C70.0512 22.665 70.6181 22.5807 71.0547 22.6526C71.7601 22.7984 71.7981 22.944 72.082 23.0895Z" fill="#808080"/>
<path d="M23.4028 25.2032L22.082 34.8394L26.3081 34.2849L26.4113 29.3069L28.5758 33.9235L30.775 33.6451L32.3117 28.7581L33.0837 33.3373L36.308 32.856L34.5096 24.8037L30.7709 24.8587L29.4529 29.8198L27.7687 25.02L23.4028 25.2032Z" fill="#808080"/>
<path d="M37.1523 24.6658L40.4942 24.4253L40.6074 32.2511L37.4691 32.7008L37.1523 24.6658Z" fill="#808080"/>
<path d="M41.8301 24.329L44.8765 24.1646L44.9078 29.3051L47.2599 29.0692L47.2508 31.3787L41.8697 32.1407L41.8301 24.329Z" fill="#808080"/>
<path d="M53.2988 23.765L55.6156 23.584L55.6415 30.246L53.2988 30.6109V23.765Z" fill="#808080"/>
<path d="M62.305 27.8278C61.474 29.5275 59.5555 30.3491 58.0198 29.6628C56.4841 28.9768 55.9126 27.0426 56.7436 25.3429C57.5746 23.6431 59.4933 22.8217 61.0291 23.5078C62.5648 24.1941 63.136 26.1282 62.305 27.8278V27.8278Z" fill="#808080"/>
<path d="M47.9607 24.0695L50.5455 23.916L50.5722 28.7146L52.568 28.4944L52.5603 30.6502L47.9944 31.3616L47.9607 24.0695Z" fill="#808080"/>
<path d="M63.2826 23.104L63.2358 29.2453L64.8994 29.0213L64.9554 25.8105L66.3199 28.7786L68.0769 28.6665L68.2076 22.8613L66.5441 22.9547L66.6096 26.2399L65.0676 23.0014L63.2826 23.104Z" fill="#808080"/>
<path d="M72.7148 22.4919L72.2392 23.8215L71.4783 23.4986C70.8556 23.3509 70.784 24.0866 71.117 24.1445L71.8588 24.3344C72.3146 24.481 72.488 24.829 72.5817 25.0562C72.7959 25.809 72.6136 26.1218 72.5245 26.5379C72.2296 27.3329 71.6722 27.6752 70.9838 27.7916C70.1193 27.9197 69.683 27.7487 69.158 27.6396L69.7475 26.044C69.8552 26.4573 70.3414 26.4693 70.4704 26.4998C70.7582 26.5733 70.9876 26.4571 71.098 26.3099C71.2576 26.0336 71.0765 25.8411 70.9077 25.7781L70.0708 25.6071C69.567 25.473 69.4258 24.8612 69.3386 24.496C69.2826 24.0102 69.3406 23.5788 69.5907 23.1622C69.7874 22.7909 70.0177 22.5425 70.3651 22.2789C70.684 22.0674 71.2507 21.9831 71.6876 22.055C72.3927 22.2005 72.4308 22.3463 72.7148 22.4919V22.4919Z" fill="white"/>
<path d="M24.0013 24.6394L22.6804 34.2757L26.9065 33.7212L27.0096 28.7431L29.1744 33.3595L31.3734 33.0814L32.9103 28.1941L33.6821 32.7733L36.9064 32.2923L35.1079 24.2397L31.3693 24.2947L30.0513 29.256L28.3671 24.4562L24.0013 24.6394Z" fill="white"/>
<path d="M37.7161 24.1025L41.0581 23.8618L41.1711 31.6878L38.033 32.1375L37.7161 24.1025Z" fill="white"/>
<path d="M42.394 23.6264L45.4402 23.4619L45.4718 28.6025L47.8237 28.3667L47.8146 30.6761L42.4337 31.4382L42.394 23.6264Z" fill="white"/>
<path d="M53.9692 23.0956L56.2858 22.9146L56.3118 29.5764L53.9692 29.9412V23.0956Z" fill="white"/>
<path d="M62.9752 27.1584C62.1442 28.858 60.2255 29.6796 58.6898 28.9935C57.1541 28.3072 56.5829 26.3731 57.4138 24.6733C58.2448 22.9738 60.1634 22.1522 61.6991 22.8385C63.2348 23.5245 63.8062 25.4587 62.9752 27.1584V27.1584Z" fill="white"/>
<path d="M48.6284 23.402L51.2134 23.2485L51.2401 28.0474L53.2357 27.8271L53.2281 29.9829L48.6621 30.6944L48.6284 23.402Z" fill="white"/>
<path d="M63.9506 22.5049L63.9038 28.6459L65.5671 28.422L65.6233 25.2114L66.9877 28.1793L68.7447 28.0674L68.8754 22.2622L67.2119 22.3556L67.2774 25.6408L65.7354 22.4023L63.9506 22.5049Z" fill="white"/>
<path d="M73.0034 22.2394L72.5278 23.5692L71.7671 23.2462C71.1442 23.0986 71.0726 23.8342 71.4057 23.8921L72.1475 24.082C72.6034 24.2287 72.7765 24.5768 72.8702 24.8039C73.0846 25.5568 72.9022 25.8694 72.8132 26.2856C72.5183 27.0806 71.9609 27.4229 71.2726 27.5392C70.4081 27.6674 69.9718 27.4962 69.4465 27.3873L70.0363 25.7916C70.144 26.2048 70.63 26.217 70.759 26.2476C71.0469 26.3208 71.2761 26.2046 71.3866 26.0575C71.5462 25.7813 71.3653 25.5887 71.1964 25.5256L70.3596 25.3547C69.8556 25.2207 69.7144 24.6087 69.6272 24.2435C69.5714 23.7579 69.6294 23.3266 69.8795 22.9099C70.0759 22.5384 70.3065 22.29 70.6536 22.0267C70.9726 21.8149 71.5394 21.7306 71.9763 21.8025C72.6815 21.9483 72.7195 22.0939 73.0034 22.2394V22.2394Z" fill="#33337A"/>
<path d="M24.3246 24.3538L23.0037 33.9898L27.2297 33.4355L27.3329 28.4573L29.4976 33.0739L31.6966 32.7958L33.2335 27.9085L34.0053 32.4877L37.2296 32.0065L35.4312 23.9541L31.6925 24.0091L30.3745 28.9702L28.6903 24.1706L24.3246 24.3538Z" fill="#33337A"/>
<path d="M38.074 23.8846L41.416 23.644L41.529 31.4701L38.3907 31.9196L38.074 23.8846Z" fill="#33337A"/>
<path d="M42.7517 23.4784L45.7981 23.314L45.8294 28.4546L48.1815 28.2186L48.1725 30.5282L42.7914 31.2903L42.7517 23.4784Z" fill="#33337A"/>
<path d="M54.2205 22.9149L56.5371 22.7339L56.5629 29.3959L54.2205 29.7607V22.9149Z" fill="#33337A"/>
<path d="M63.2267 26.9779C62.3957 28.6774 60.4771 29.499 58.9414 28.8127C57.4057 28.1266 56.8343 26.1925 57.6652 24.4928C58.4964 22.7932 60.415 21.9716 61.9507 22.6577C63.4864 23.344 64.0576 25.2781 63.2267 26.9779V26.9779Z" fill="#33337A"/>
<path d="M48.8821 23.1852L51.4671 23.0317L51.4937 27.8304L53.4894 27.6103L53.5164 29.8008L48.9158 30.4776L48.8821 23.1852Z" fill="#33337A"/>
<path d="M64.204 22.2539L64.1575 28.3951L65.8208 28.1712L65.877 24.9606L67.2413 27.9285L68.9983 27.8164L69.1291 22.0112L67.4656 22.1046L67.5311 25.3898L65.989 22.1513L64.204 22.2539Z" fill="#33337A"/>
<path d="M60.6974 23.354L60.2024 24.9135L58.0696 25.1038L59.7834 26.1306L59.3264 28.0325L60.7736 26.7393L62.1067 27.3478L61.6116 25.9405L62.7923 24.7994L61.345 24.8755L60.6974 23.354Z" fill="white"/>
<defs>
<radialGradient id="paint0_radial_18501_8" cx="0" cy="0" r="1" gradientUnits="userSpaceOnUse" gradientTransform="translate(16.755 9.7308) rotate(71.5003) scale(8.56396 9.20387)">
<stop stop-color="#FFF6D5"/>
<stop offset="1" stop-color="#FFF6D5" stop-opacity="0"/>
</radialGradient>
<radialGradient id="paint1_radial_18501_8" cx="0" cy="0" r="1" gradientUnits="userSpaceOnUse" gradientTransform="translate(17.3606 9.75833) rotate(74.9811) scale(3.46522 4.17195)">
<stop stop-color="#FFF6D5"/>
<stop offset="1" stop-color="#FFF6D5" stop-opacity="0"/>
</radialGradient>
</defs>
</svg>
