<svg width="78" height="34" viewBox="0 0 78 34" fill="none" xmlns="http://www.w3.org/2000/svg">
<path d="M9.95117 29.4619C13.6157 31.861 17.5465 33.335 21.8304 33.5667V32.8591C17.7175 32.3762 13.7709 31.1827 9.95117 29.4619Z" fill="#FDB927"/>
<path d="M24.4362 3.93604L21.9907 24.5374L28.8252 24.1695L29.703 13.6235L33.0262 23.9244L36.4856 23.6462L39.2336 14.5433L40.3623 23.3725L45.8173 22.9719L43.0584 5.77548L37.2272 5.46887L34.6564 14.9725L31.8349 4.85565L24.4362 3.93604Z" fill="#808080"/>
<path d="M46.0682 5.99023L46.2065 22.9899L55.0787 22.3006L55.0657 18.7741H51.2097L51.1782 16.9654L54.6583 16.9347V12.9799L51.2097 12.9494L51.147 11.2632L55.0345 11.3858L54.9716 6.9406L46.0682 5.99023Z" fill="#808080"/>
<path d="M63.8568 12.847L66.9606 11.0076C66.2368 9.87554 65.7713 8.68285 63.8254 7.75807C62.669 7.14464 60.6233 6.93629 59.2169 7.78861C57.1767 8.85229 55.8873 11.1676 55.8937 13.307C55.7547 15.4543 55.84 17.627 56.9596 19.4383C58.82 22.4605 61.4858 22.5517 64.0606 21.6456C65.2697 21.1438 67.0101 19.4908 67.0545 17.1392L67.2427 13.8281L61.9131 13.7054L61.8816 16.8631L63.5432 16.8938C63.4487 17.6446 63.1923 18.1631 61.7248 18.2426C61.1584 18.1856 59.7572 17.9833 59.8126 16.1888L59.9379 13.1689C59.9696 12.5052 60.9082 11.4643 62.1011 11.4983C62.8042 11.5178 63.4423 11.8406 63.8568 12.847V12.847Z" fill="#808080"/>
<path d="M70.2756 8.13818L67.0427 21.4013L70.2079 21.1984L70.5553 19.5468H72.775L73.0201 20.9823L75.89 20.7698L73.6532 8.32675L70.2756 8.13818ZM71.8968 12.5262L72.5625 16.631L71.0861 16.6026L71.8968 12.5262Z" fill="#808080"/>
<path d="M25.5001 3.24316L23.0548 23.8445L29.8891 23.4766L30.7671 12.9306L34.0901 23.2313L37.5495 22.9533L40.2975 13.8505L41.4262 22.6796L46.8811 22.2788L44.1223 5.0824L38.2911 4.776L35.7203 14.2796L32.8988 4.16278L25.5001 3.24316Z" fill="white"/>
<path d="M47.1322 5.29736L47.2705 22.297L56.1428 21.6077L56.1299 18.0812H52.2736L52.2424 16.2725L55.7222 16.2418V12.287L52.2736 12.2563L52.211 10.5702L56.0984 10.6929L56.0358 6.24773L47.1322 5.29736Z" fill="white"/>
<path d="M64.9208 12.1542L68.0246 10.3148C67.3008 9.18274 66.8353 7.98984 64.8896 7.06528C63.733 6.45163 61.6873 6.2435 60.2809 7.09581C58.2407 8.15949 56.9513 10.4748 56.9579 12.6142C56.8189 14.7615 56.904 16.9342 58.0239 18.7455C59.8843 21.7677 62.5499 21.8589 65.1247 20.9528C66.334 20.451 68.0741 18.798 68.1187 16.4461L68.3067 13.1353L62.9771 13.0126L62.9459 16.1703L64.6075 16.201C64.5127 16.9516 64.2564 17.4702 62.7891 17.5498C62.2227 17.4928 60.8212 17.2905 60.8766 15.4958L61.0021 12.4761C61.0336 11.8124 61.9722 10.7715 63.1653 10.8052C63.8683 10.825 64.5066 11.1478 64.9208 12.1542V12.1542Z" fill="white"/>
<path d="M71.3395 7.44482L68.1066 20.7082L71.272 20.5052L71.6194 18.8537H73.8388L74.084 20.2891L76.9541 20.0765L74.717 7.63361L71.3395 7.44482ZM72.9606 11.8328L73.6266 15.9379L72.1501 15.9095L72.9606 11.8328Z" fill="white"/>
<path d="M26.0324 2.896L23.5869 23.4976L30.4214 23.1297L31.2992 12.5837L34.6224 22.8844L38.0818 22.6063L40.8298 13.5035L41.9585 22.3326L47.4135 21.9319L44.6546 4.73544L38.8234 4.42905L36.2526 13.9327L33.4311 3.81583L26.0324 2.896Z" fill="#EE1D25"/>
<path d="M47.6643 4.94922L47.8026 21.9491L56.6747 21.2598L56.6618 17.7333H52.8057L52.7743 15.9244L56.2543 15.8939V11.9391L52.8057 11.9084L52.7431 10.2222L56.6305 10.345L56.5676 5.89958L47.6643 4.94922Z" fill="#EE1D25"/>
<path d="M65.4529 11.8081L68.5567 9.96862C67.8328 8.83657 67.3673 7.64367 65.4214 6.71889C64.2651 6.10546 62.2193 5.89733 60.813 6.74964C58.7727 7.81332 57.4834 10.1286 57.4897 12.268C57.3508 14.4153 57.4361 16.5878 58.5557 18.3993C60.4161 21.4216 63.0819 21.5127 65.6567 20.6067C66.8658 20.1048 68.6061 18.4518 68.6505 16.1L68.8388 12.789L63.5091 12.6664L63.4777 15.8241L65.1393 15.8549C65.0448 16.6055 64.7884 17.1241 63.3211 17.2036C62.7545 17.1467 61.3532 16.9443 61.4086 15.1496L61.534 12.1299C61.5656 11.4662 62.5043 10.4253 63.6973 10.4591C64.4003 10.4789 65.0384 10.8016 65.4529 11.8081V11.8081Z" fill="#EE1D25"/>
<path d="M71.8716 7.09766L68.6387 20.361L71.8038 20.158L72.1512 18.5065H74.3709L74.6161 19.9419L77.4859 19.7293L75.2491 7.28644L71.8716 7.09766ZM73.4927 11.4857L74.1585 15.5907L72.682 15.5623L73.4927 11.4857Z" fill="#EE1D25"/>
<path d="M27.4944 11.6243C27.4944 16.5513 23.466 20.5454 18.4967 20.5454C13.5277 20.5454 9.49927 16.5513 9.49927 11.6243C9.49927 6.69723 13.5277 2.70312 18.4967 2.70312C23.466 2.70312 27.4944 6.69723 27.4944 11.6243Z" fill="#FDB927"/>
<path d="M27.4944 11.6243C27.4944 16.5513 23.466 20.5454 18.4967 20.5454C13.5277 20.5454 9.49927 16.5513 9.49927 11.6243C9.49927 6.69723 13.5277 2.70312 18.4967 2.70312C23.466 2.70312 27.4944 6.69723 27.4944 11.6243Z" fill="url(#paint0_radial_18501_215)"/>
<path d="M28.0265 11.2776C28.0265 16.2047 23.9981 20.1988 19.0288 20.1988C14.0595 20.1988 10.0311 16.2047 10.0311 11.2776C10.0311 6.35055 14.0595 2.35645 19.0288 2.35645C23.9981 2.35645 28.0265 6.35055 28.0265 11.2776Z" fill="url(#paint1_radial_18501_215)"/>
<path d="M17.4876 11.8149L15.191 10.6884L12.8339 12.5721L13.7011 9.94553L10.3369 8.1966L14.0311 8.30927L14.7954 5.92627L15.7611 8.28648L18.4016 8.2796L16.5234 9.68988L17.4876 11.8149Z" fill="#214489"/>
<path d="M21.6797 7.49016L19.695 6.76427L18.2907 8.31603L18.3615 6.02914L16.2188 4.63907L18.471 4.47588L18.6856 2.80371L19.8549 4.46663L21.6799 4.43029L20.6042 5.70468L21.6797 7.49016Z" fill="#214489"/>
<path d="M25.5498 8.23343L24.2567 8.03024L23.824 9.45127L23.1362 7.8148L21.6991 7.4955L22.9951 6.71801L22.8218 5.06885L23.8717 6.22477L24.8964 5.53048L24.5547 7.01688L25.5498 8.23343Z" fill="#214489"/>
<path d="M25.4898 13.6713L24.5973 12.088L23.24 12.2624L24.2059 11.1228L23.7444 9.52523L24.7893 10.2737L25.6851 9.23389L25.6582 10.8129L26.8687 11.5302L25.5465 11.7551L25.4898 13.6713Z" fill="#214489"/>
<path d="M18.9348 17.7849L17.26 16.5421L14.4484 18.5808L15.7217 15.8721L13.1528 14.02L16.615 14.0957L17.4691 11.8208L18.2806 14.0165L20.4618 14.075L18.5819 15.3946L18.9348 17.7849Z" fill="#214489"/>
<path d="M25.2802 14.7267L23.4785 14.4248L23.227 12.3447L22.2687 14.2603L20.4473 14.0694L21.6568 15.5549L20.7826 17.5169L22.4884 16.5197L23.6955 17.8059L23.6142 15.8211L25.2802 14.7267Z" fill="#214489"/>
<path d="M15.8243 21.9353C21.4992 24.6737 27.0547 21.7529 28.667 16.6904C25.919 20.8983 19.2408 22.4079 15.8243 21.9353V21.9353Z" fill="#FDB927"/>
<path d="M9.34216 7.75239C9.92572 5.96649 11.6843 3.67422 13.6065 3.08724C12.9677 2.7015 9.60052 0.0839222 4.20886 0.955374C-0.655967 2.04614 -0.139471 7.46191 0.56854 9.65204C0.619552 8.34196 0.47641 6.55799 1.30557 5.51797C1.71543 5.06601 4.20424 4.03459 9.08292 7.54297C9.47299 7.82077 8.24254 6.89642 9.34216 7.75239Z" fill="#FDB927"/>
<defs>
<radialGradient id="paint0_radial_18501_215" cx="0" cy="0" r="1" gradientUnits="userSpaceOnUse" gradientTransform="translate(14.8738 8.76459) rotate(71.1343) scale(9.36824 10.2381)">
<stop stop-color="#FFF6D5"/>
<stop offset="1" stop-color="#FFF6D5" stop-opacity="0"/>
</radialGradient>
<radialGradient id="paint1_radial_18501_215" cx="0" cy="0" r="1" gradientUnits="userSpaceOnUse" gradientTransform="translate(15.549 8.7944) rotate(74.6764) scale(3.78793 4.6441)">
<stop stop-color="#FFF6D5"/>
<stop offset="1" stop-color="#FFF6D5" stop-opacity="0"/>
</radialGradient>
</defs>
</svg>
